<svg xmlns="http://www.w3.org/2000/svg" xmlns:xlink="http://www.w3.org/1999/xlink" width="300" zoomAndPan="magnify" viewBox="0 0 224.87999 225" height="300" preserveAspectRatio="xMidYMid meet" version="1.0"><defs><clipPath id="b2975c44d2"><path d="M 35 6 L 197.164062 6 L 197.164062 224.9375 L 35 224.9375 Z M 35 6 " clip-rule="nonzero"/></clipPath><clipPath id="d9f543e45b"><path d="M 27.753906 0.0585938 L 193 0.0585938 L 193 222 L 27.753906 222 Z M 27.753906 0.0585938 " clip-rule="nonzero"/></clipPath></defs><g clip-path="url(#b2975c44d2)"><path fill="#000000" d="M 164.253906 183.523438 C 164.324219 180.355469 165.46875 132.09375 177.855469 103.246094 L 164.277344 92.691406 L 101.863281 114.109375 L 110.796875 121.921875 L 135.023438 117.039062 L 141.957031 125.042969 C 110.105469 135.546875 87.546875 151.578125 87.546875 151.578125 C 101.339844 105.699219 86.1875 59.507812 86.1875 59.507812 L 118.417969 95.027344 C 135 67.105469 143.433594 37.972656 143.433594 37.972656 L 131.1875 8.625 C 128.402344 16.367188 112.320312 54.457031 112.320312 54.457031 C 110.535156 42.023438 101.003906 6.074219 101.003906 6.074219 L 39.304688 62.222656 C 39.304688 62.222656 59.03125 108.605469 35.113281 187.695312 L 46.191406 200.367188 C 46.191406 200.367188 81.613281 178.617188 125.328125 179.308594 L 123.300781 189.335938 C 108.367188 194.460938 99.074219 200.964844 99.074219 200.964844 L 110.914062 224.902344 C 110.914062 224.902344 134.070312 203.035156 182.929688 208.132812 L 197.128906 191.554688 C 185.765625 186.527344 174.664062 184.144531 164.253906 183.523438 Z M 164.253906 183.523438 " fill-opacity="1" fill-rule="nonzero"/></g><path fill="#eb6514" d="M 158.179688 178.808594 C 158.25 175.640625 159.394531 127.375 171.78125 98.527344 L 158.203125 87.976562 L 95.789062 109.390625 L 104.722656 117.203125 L 128.949219 112.320312 L 135.878906 120.324219 C 104.03125 130.832031 81.472656 146.863281 81.472656 146.863281 C 95.242188 100.980469 80.089844 54.792969 80.089844 54.792969 L 112.320312 90.308594 C 128.902344 62.390625 137.332031 33.257812 137.332031 33.257812 L 125.089844 3.90625 C 122.300781 11.648438 106.222656 49.742188 106.222656 49.742188 C 104.4375 37.328125 94.90625 1.382812 94.90625 1.382812 L 33.207031 57.53125 C 33.207031 57.53125 52.933594 103.914062 29.015625 183 L 40.09375 195.675781 C 40.09375 195.675781 75.515625 173.925781 119.230469 174.617188 L 117.203125 184.644531 C 102.269531 189.765625 92.976562 196.269531 92.976562 196.269531 L 104.816406 220.210938 C 104.816406 220.210938 127.972656 198.34375 176.832031 203.441406 L 191.027344 186.859375 C 179.664062 181.832031 168.566406 179.453125 158.179688 178.808594 Z M 158.179688 178.808594 " fill-opacity="1" fill-rule="nonzero"/><g clip-path="url(#d9f543e45b)"><path fill="#000000" d="M 104.816406 221.402344 C 104.746094 221.402344 104.675781 221.402344 104.601562 221.378906 C 104.222656 221.308594 103.910156 221.070312 103.746094 220.734375 L 91.90625 196.792969 C 91.644531 196.269531 91.808594 195.625 92.285156 195.292969 C 92.667969 195.03125 101.625 188.8125 116.15625 183.738281 L 117.753906 175.78125 C 117.585938 175.78125 117.417969 175.78125 117.25 175.78125 C 95.644531 175.78125 76.300781 181.285156 63.722656 185.980469 C 49.667969 191.21875 40.785156 196.628906 40.6875 196.675781 C 40.1875 196.984375 39.542969 196.890625 39.164062 196.4375 L 28.109375 183.789062 C 27.847656 183.476562 27.753906 183.050781 27.871094 182.667969 C 40.1875 141.980469 40.664062 110.203125 38.902344 90.714844 C 36.996094 69.65625 32.160156 58.101562 32.113281 57.984375 C 31.921875 57.507812 32.039062 56.984375 32.398438 56.625 L 94.097656 0.476562 C 94.40625 0.191406 94.835938 0.0976562 95.242188 0.214844 C 95.644531 0.335938 95.953125 0.644531 96.050781 1.046875 C 96.40625 2.382812 103.960938 30.921875 106.699219 45.5 C 110.820312 35.6875 121.730469 9.671875 123.96875 3.480469 C 124.136719 3.027344 124.566406 2.691406 125.066406 2.691406 C 125.542969 2.667969 125.996094 2.976562 126.183594 3.429688 L 138.453125 32.828125 C 138.546875 33.089844 138.574219 33.351562 138.5 33.613281 C 138.40625 33.898438 129.828125 63.222656 113.367188 90.953125 C 113.179688 91.285156 112.84375 91.5 112.464844 91.523438 C 112.082031 91.574219 111.726562 91.429688 111.464844 91.144531 L 82.636719 59.390625 C 83.949219 64.390625 85.878906 72.917969 87.140625 83.496094 C 88.953125 98.671875 89.714844 121.230469 83.519531 144.074219 C 90.332031 139.644531 109.320312 128.089844 133.832031 119.753906 L 128.519531 113.632812 L 104.960938 118.371094 C 104.601562 118.445312 104.222656 118.347656 103.933594 118.109375 L 95.003906 110.296875 C 94.691406 110.011719 94.527344 109.582031 94.621094 109.175781 C 94.714844 108.773438 95.003906 108.414062 95.40625 108.273438 L 157.820312 86.855469 C 158.203125 86.738281 158.628906 86.785156 158.941406 87.046875 L 172.519531 97.597656 C 172.949219 97.933594 173.089844 98.503906 172.875 99.003906 C 161.394531 125.734375 159.632812 169.875 159.394531 177.710938 C 170.445312 178.523438 181.261719 181.238281 191.527344 185.789062 C 191.863281 185.929688 192.125 186.242188 192.21875 186.621094 C 192.292969 186.980469 192.195312 187.382812 191.957031 187.671875 L 177.761719 204.25 C 177.496094 204.535156 177.117188 204.703125 176.734375 204.65625 C 151.816406 202.058594 133.832031 206.65625 123.113281 210.992188 C 111.511719 215.683594 105.722656 221.046875 105.675781 221.117188 C 105.414062 221.28125 105.125 221.402344 104.816406 221.402344 Z M 94.527344 196.675781 L 105.222656 218.304688 C 107.507812 216.472656 113.058594 212.46875 122.0625 208.800781 C 132.949219 204.371094 151.175781 199.652344 176.332031 202.179688 L 189.074219 187.3125 C 179.164062 183.121094 168.730469 180.644531 158.082031 180 C 157.441406 179.953125 156.964844 179.429688 156.964844 178.785156 C 156.988281 177.355469 157.296875 164.324219 159.15625 148.148438 C 161.511719 127.542969 165.277344 110.988281 170.304688 98.886719 L 157.964844 89.285156 L 98.097656 109.820312 L 105.03125 115.894531 L 128.6875 111.128906 C 129.117188 111.035156 129.542969 111.203125 129.828125 111.511719 L 136.761719 119.515625 C 137.023438 119.824219 137.121094 120.230469 137 120.613281 C 136.90625 120.992188 136.59375 121.300781 136.214844 121.421875 C 104.914062 131.734375 82.351562 147.648438 82.113281 147.816406 C 81.710938 148.101562 81.136719 148.101562 80.734375 147.816406 C 80.328125 147.53125 80.136719 146.980469 80.28125 146.507812 C 87.332031 123.015625 86.59375 99.457031 84.710938 83.804688 C 82.6875 66.820312 78.945312 55.269531 78.898438 55.148438 C 78.730469 54.625 78.945312 54.027344 79.421875 53.742188 C 79.898438 53.457031 80.519531 53.550781 80.898438 53.980469 L 112.128906 88.332031 C 126.875 63.058594 135.023438 36.878906 136.070312 33.351562 L 125.136719 7.148438 C 120.730469 18.460938 107.914062 48.8125 107.316406 50.21875 C 107.105469 50.71875 106.601562 51.003906 106.078125 50.933594 C 105.554688 50.859375 105.125 50.457031 105.054688 49.90625 C 103.554688 39.332031 96.242188 11.148438 94.265625 3.574219 L 34.613281 57.839844 C 35.757812 60.816406 39.59375 71.941406 41.257812 90.476562 C 42.402344 103.03125 42.285156 116.371094 40.925781 130.117188 C 39.257812 147.101562 35.683594 164.777344 30.324219 182.691406 L 40.332031 194.125 C 42.925781 192.625 51.097656 188.148438 62.84375 183.738281 C 75.992188 178.832031 96.480469 173.042969 119.253906 173.378906 C 119.609375 173.378906 119.945312 173.542969 120.160156 173.828125 C 120.371094 174.117188 120.46875 174.472656 120.394531 174.804688 L 118.371094 184.835938 C 118.277344 185.242188 117.992188 185.597656 117.585938 185.71875 C 105.554688 189.886719 97.121094 195.007812 94.527344 196.675781 Z M 94.527344 196.675781 " fill-opacity="1" fill-rule="nonzero"/></g><path fill="#000000" d="M 118.085938 174.328125 L 124.351562 152.867188 L 120.394531 174.878906 Z M 118.085938 174.328125 " fill-opacity="1" fill-rule="nonzero"/></svg>